<?xml version="1.0" encoding="UTF-8" standalone="no"?>
<svg
   xmlns:dc="http://purl.org/dc/elements/1.1/"
   xmlns:cc="http://creativecommons.org/ns#"
   xmlns:rdf="http://www.w3.org/1999/02/22-rdf-syntax-ns#"
   xmlns:svg="http://www.w3.org/2000/svg"
   xmlns="http://www.w3.org/2000/svg"
   xmlns:sodipodi="http://sodipodi.sourceforge.net/DTD/sodipodi-0.dtd"
   xmlns:inkscape="http://www.inkscape.org/namespaces/inkscape"
   viewBox="0 0 394.77151 107.08182"
   height="107.08182"
   width="394.77151"
   xml:space="preserve"
   id="svg2"
   version="1.1"
   inkscape:version="0.91 r13725"
   sodipodi:docname="Kaneka Corporation company logo.svg"><sodipodi:namedview
     pagecolor="#ffffff"
     bordercolor="#666666"
     borderopacity="1"
     objecttolerance="10"
     gridtolerance="10"
     guidetolerance="10"
     inkscape:pageopacity="0"
     inkscape:pageshadow="2"
     inkscape:window-width="1024"
     inkscape:window-height="716"
     id="namedview9"
     showgrid="false"
     fit-margin-top="5"
     fit-margin-bottom="5"
     fit-margin-right="5"
     fit-margin-left="5"
     inkscape:zoom="1"
     inkscape:cx="225.56775"
     inkscape:cy="34.400275"
     inkscape:window-x="-8"
     inkscape:window-y="-8"
     inkscape:window-maximized="1"
     inkscape:current-layer="g12" /><metadata
     id="metadata8"><rdf:RDF><cc:Work
         rdf:about=""><dc:format>image/svg+xml</dc:format><dc:type
           rdf:resource="http://purl.org/dc/dcmitype/StillImage" /><dc:title /></cc:Work></rdf:RDF></metadata><defs
     id="defs6" /><g
     transform="matrix(2.1893378,0,0,-2.1893378,289.38165,273.54513)"
     id="g10"><g
       transform="scale(0.1,0.1)"
       id="g12"><path
         id="path16"
         style="fill:#015aaa;fill-opacity:1;fill-rule:evenodd;stroke:none"
         d="m -531.85912,783.36232 73.492,0 c 4.016,0 8.34,3.828 8.34,11.117 l 0,382.00898 c 0,27.81 -28.859,50.02 -55.23,50.02 l -130.813,0 c -26.414,0 -55.273,-22.21 -55.273,-50.02 l 0,-382.00898 c 0,-7.289 4.367,-11.117 8.34,-11.117 l 73.492,0 c 6.269,0 9.574,4.848 9.574,10.754 l 0,339.47198 c 0,7.11 4.672,11.28 10.23,11.28 l 38.059,0 c 5.555,0 10.258,-4.17 10.258,-11.28 l 0,-339.47198 c 0,-5.906 3.289,-10.754 9.531,-10.754 z m 252.589,351.77598 0,-101.175 c 4.55,1.735 9.23,3.555 13.65,5.368 7.91,3.237 15.04,6.397 19.19,8.917 7.48,4.52 9.06,15.29 9.06,25.01 0,9.74 0,55.98 0,61.54 0,5.56 -4.37,10.78 -9.22,10.78 l -22.94,0 c -5.56,0 -9.74,-4.2 -9.74,-10.44 z m 0,-195.96798 0,-62.886 c 0,-7.102 4.7,-11.281 10.25,-11.281 l 112.07,0 c 0,0 3.3,-0.336 3.3,-2.43 0,-2.11 0,-75.059 0,-77.477 0,-2.445 -4,-1.734 -4,-1.734 l -157.75,0 c -26.39,0 -55.23,22.211 -55.23,50.019 l 0,349.01698 c 0,27.8 27.27,44.11 51.6,44.11 l 121.07,0 c 29.9,0 53.68,-26.38 53.68,-60.45 0,-34.04 0,-91.4 0,-117.81 0,-26.417 -17.38,-37.511 -36.13,-51.40598 -12.41,-9.191 -65.54,-39.121 -98.86,-57.672 z m 646.45,-64.433 0,120.254 c -4.55,-1.731 -9.23,-3.555 -13.66,-5.363 -7.9,-3.235 -15.02,-6.418 -19.19,-8.918 -7.47,-4.536 -9.05,-15.293 -9.05,-25.016 0,-9.731 0,-75.059 0,-80.621 0,-5.555 4.36,-10.777 9.21,-10.777 l 22.95,0 c 5.56,0 9.74,4.199 9.74,10.441 z m 0,215.05098 0,43.8 c 0,7.11 -4.71,11.28 -10.25,11.28 l -112.07,0 c 0,0 -3.3,0.34 -3.3,2.43 0,2.11 0,75.06 0,77.48 0,2.44 4,1.73 4,1.73 l 157.75,0 c 26.39,0 55.23,-22.21 55.23,-50.02 l 0,-349.01698 c 0,-27.797 -27.27,-44.109 -51.6,-44.109 l -121.07,0 c -29.9,0 -53.69,26.387 -53.69,60.453 0,34.039 0,110.484 0,136.895 0,26.41798 17.38,37.51098 36.14,51.40598 12.41,9.192 65.54,39.122 98.86,57.672 z m -1231.004,-215.05098 0,120.254 c -4.547,-1.731 -9.23,-3.555 -13.652,-5.363 -7.906,-3.235 -15.024,-6.418 -19.195,-8.918 -7.465,-4.536 -9.051,-15.293 -9.051,-25.016 0,-9.731 0,-75.059 0,-80.621 0,-5.555 4.367,-10.777 9.215,-10.777 l 22.949,0 c 5.558,0 9.734,4.199 9.734,10.441 z m 0,215.05098 0,43.8 c 0,7.11 -4.703,11.28 -10.246,11.28 l -112.07,0 c 0,0 -3.305,0.34 -3.305,2.43 0,2.11 0,75.06 0,77.48 0,2.44 4.004,1.73 4.004,1.73 l 157.75,0 c 26.387,0 55.231,-22.21 55.231,-50.02 l 0,-349.01698 c 0,-27.797 -27.274,-44.109 -51.602,-44.109 l -121.07,0 c -29.903,0 -53.684,26.387 -53.684,60.453 0,34.039 0,110.484 0,136.895 0,26.41798 17.375,37.51098 36.133,51.40598 12.414,9.192 65.539,39.122 98.859,57.672 z m -288.20698,-143.30098 0,-159.297 c 0,0 -0.711,-4.016 1.735,-4.016 2.429,0 86.675,0 88.769,0 2.07,0 2.418,3.305 2.418,3.305 l 0,191.617 c 0,31.63698 -30.25,57.54698 -66.66,74.97198 l 73.601,169.29 c 0,0 1.415,4.15 -1.378,4.15 -2.086,0 -84.774,0 -86.868,0 -2.07,0 -4.324,-3.65 -4.324,-3.65 l -61.328,-141.12 0,140.62 c 0,0 -0.348,4.15 -3.141,4.15 -2.066,0 -84.7691,0 -86.8668,0 -2.0664,0 -2.7773,-3.65 -2.7773,-3.65 l 0,-435.66798 c 0,0 -0.6836,-4.016 1.7617,-4.016 2.4141,0 86.5114,0 88.6094,0 2.066,0 2.414,3.305 2.414,3.305 l 0,211.387 c 24.516,-4.406 54.035,-19.563 54.035,-51.379 z m 1232.720976,0 0,-159.297 c 0,0 -0.67,-4.016 1.73,-4.016 2.44,0 86.700004,0 88.810004,0 2.08,0 2.42,3.305 2.42,3.305 l 0,191.617 c 0,31.63698 -30.27,57.55498 -66.69,74.97198 l 73.63,169.29 c 0,0 1.38,4.15 -1.39,4.15 -2.09,0 -84.780004,0 -86.860004,0 -2.08,0 -4.36,-3.65 -4.36,-3.65 l -61.31,-141.14 0,140.64 c 0,0 -0.35,4.15 -3.12,4.15 -2.1,0 -84.78,0 -86.87,0 -2.06,0 -2.77,-3.65 -2.77,-3.65 l 0,-435.66798 c 0,0 -0.69,-4.016 1.73,-4.016 2.43,0 86.51,0 88.58,0 2.1,0 2.45,3.305 2.45,3.305 l 0,211.387 c 24.5,-4.406 54.02,-19.567 54.02,-51.379"
         inkscape:connector-curvature="0" /></g></g></svg>